<svg width="1440" height="600" viewBox="0 0 1440 600" fill="none" xmlns="http://www.w3.org/2000/svg">
<mask id="mask0_4159_54221" style="mask-type:alpha" maskUnits="userSpaceOnUse" x="0" y="0" width="1440" height="600">
<rect width="1440" height="600" fill="#1A1A1A"/>
</mask>
<g mask="url(#mask0_4159_54221)">
<path d="M727.821 223L724 224.981M1439.95 252.876L1392.13 257.041L1360.83 260.751L1336.14 265.13L1325 267.827L1314.03 271.12L1303.95 274.854L1296.09 278.338L1279.86 287.454L1263.15 299.755L1234.38 324.525L1221.94 334.178L1206.25 344.2L1190.16 352.051L1171.31 358.888L1148.47 364.961L1126.72 369.471L1074.58 379.04L1049.44 384.779L1030.3 390.781L1013.94 398.023L1005.31 403.13L997.227 409.048L989.788 415.765L983.029 423.163L977.322 430.513L971.268 439.39L950.396 474.456L941.356 488.213L930.646 501.66L919.409 512.673L912.114 518.46L903.791 524.056L895.074 529.007L883.432 534.555L862.022 542.717L818.976 556.283L804.086 561.425L788.253 568.107L775.166 575.516L768.849 580.217L762.019 586.529L755.905 593.545L751.058 600.632L747.392 607.6L744.43 615.654L742.759 623.35L742.233 630.485L742.723 637.62L744.478 645.292L747.475 652.57L751.583 659.275L756.634 665.313L763.536 671.553L770.557 676.493L778.653 681.098L795.095 688.173L815.597 694.569L839.992 700.367L897.606 711.834L925.559 718.157L953.106 726.02L966.635 730.757L979.268 735.804L1001.26 746.256L1023.62 759.094L1044.57 772.863L1092.63 806.606L1113.8 820.028L1136.54 832.187L1158.99 841.601L1173.27 846.326L1189.88 850.764L1203.88 853.771L1225.08 857.326L1262.08 861.681L1344.89 868.685L1378.37 872.241L1410.94 877.288L1424.95 880.235L1439.52 883.969M1439.57 265.548L1397.5 269.664L1368.4 273.661L1344.56 278.601L1324.75 284.805L1308.44 292.191L1293.25 301.652L1277.68 314.276L1249.61 340.871L1237.61 351.085L1222.95 361.358L1207.19 369.841L1188.58 377.262L1165.89 383.884L1143.54 388.979L1095.09 398.846L1071.47 404.753L1051.14 411.697L1042.64 415.491L1035.06 419.536L1026.64 424.976L1018.79 431.217L1011.59 438.185L1005.04 445.773L993.896 461.558L971.984 498.51L963.005 512.315L952.509 525.917L941.082 537.777L927.159 549.004L910.717 559.17L892.746 568.059L850.142 586.839L838.093 593.175L828.995 598.878L818.952 606.944L812.373 614.485L809.782 618.768L808.098 622.717L807.036 626.881L806.725 630.437L807.083 634.72L808.492 639.517L810.439 643.347L812.898 646.867L820.015 653.894L830.738 661.029L842.929 667.067L859.587 673.629L918.18 692.672L941.118 700.857L963.602 710.223L982.265 719.339L1001.6 730.256L1021.48 743.034L1043.64 758.832L1086.09 790.57L1107.97 805.52L1120.19 812.977L1132.13 819.503L1144.4 825.41L1155.63 830.111L1170.49 835.36L1186.33 839.882L1203.11 843.665L1220.03 846.672L1260.54 851.719L1346.21 859.104L1378.25 862.564L1411.51 867.79L1424.82 870.63L1439.39 874.388M1439.63 259.129L1396.12 263.126L1364.14 267.218L1340.24 271.871L1320.31 277.706L1311.63 281.083L1301.91 285.652L1287.17 294.494L1271.33 306.759L1244.26 331.29L1231.56 341.778L1215.55 352.6L1199.63 360.785L1180.22 368.159L1160.23 373.79L1137.15 378.897L1086.51 388.705L1062.11 394.491L1041.67 401.09L1032.43 405.003L1024.77 408.905L1016.85 413.785L1008.85 419.822L1000.5 427.661L994.361 434.653L983.125 450.379L962.289 485.469L952.915 499.87L942.336 513.401L930.216 525.571L923.565 531.012L914.765 537.168L906.143 542.299L895.289 547.811L875.468 556.116L838.404 569.467L825.078 574.717L812.731 580.456L800.97 587.281L789.029 596.408L783.5 602.004L779.082 607.648L776.109 612.54L773.506 618.422L771.99 623.946L771.333 630.341L771.775 636.045L773.172 641.593L775.476 646.831L778.975 652.236L782.724 656.567L788.038 661.351L794.462 665.921L801.268 669.871L816.958 676.886L837.341 683.663L856.709 688.913L909.558 701.978L935.72 709.483L957.381 717L977.847 725.603L1000.81 737.331L1024.05 751.494L1042.95 764.463L1086.99 796.452L1112.08 813.037L1123.85 819.873L1136.57 826.46L1148.97 832.055L1159.64 836.231L1173.23 840.765L1188.45 844.918L1203.13 848.151L1220.77 851.241L1262.73 856.348L1344.1 863.268L1378.3 866.907L1410.85 871.978L1424.87 874.937L1439.45 878.684M1439.92 255.859L1392.12 260.167L1360.13 264.223L1336.92 268.686L1316.28 274.651L1306.93 278.279L1298.49 282.216L1291.57 285.962L1282.48 291.69L1267.67 302.977L1238.68 328.558L1226.33 338.354L1211.35 348.149L1194.7 356.466L1175.9 363.41L1154.47 369.256L1134.16 373.635L1079.26 384.027L1056.24 389.421L1036.45 395.72L1026.55 399.896L1018.9 403.81L1010.98 408.702L1003.01 414.775L995.687 421.612L988.582 429.666L977.417 445.439L957.333 479.312L948.354 493.117L936.341 508.258L925.069 519.247L917.774 525.034L909.463 530.642L901.403 535.295L890.477 540.676L869.199 549.171L815.657 567.51L801.22 573.81L789.996 580.146L782.426 585.563L775.381 591.636L769.506 597.9L765.219 603.639L761.315 610.475L758.879 616.429L757.112 623.362L756.479 629.769L756.849 636.188L758.449 643.156L760.921 649.098L764.682 655.195L769.303 660.659L775.703 666.387L782.748 671.29L790.247 675.502L798.032 679.141L808.039 683.055L829.95 689.784L850.118 694.748L906.072 707.133L933.117 714.148L956.987 721.82L978.265 730.327L1000.76 741.388L1024.18 755.252L1044.37 768.854L1090.41 801.749L1112.66 816.151L1124.47 822.916L1135.93 828.81L1146.35 833.571L1159.01 838.594L1172.59 843.14L1187.79 847.304L1205.29 851.098L1222.24 853.974L1260.65 858.639L1343.45 865.678L1376.94 869.198L1411.62 874.567L1425.64 877.55L1439.51 881.13M1439.99 249.392L1388.6 253.783L1359.41 257.16L1333.3 261.658L1311.84 267.326L1303.05 270.428L1293.18 274.64L1284.88 278.863L1276.26 283.994L1260.58 295.293L1230.95 320.158L1217.81 330.073L1201.95 339.833L1185.76 347.457L1168.21 353.662L1146.74 359.329L1120.05 364.722L1070.67 373.492L1046.88 378.67L1024.93 385.268L1016.28 388.717L1007.27 393.095L998.075 398.656L990.087 404.705L983.256 411.029L976.558 418.486L970.48 426.456L964.127 435.989L945.512 467.405L936.927 480.613L926.323 494.131L920.926 499.859L914.072 506.158L905.57 512.721L897.749 517.768L888.961 522.588L878.56 527.408L854.345 536.262L810.403 549.339L793.399 554.97L777.506 561.509L763.763 569.193L756.885 574.335L750.664 580.253L744.729 587.424L739.248 595.812L735.415 603.496L732.251 612.241L730.221 621.321L729.517 629.876L730.126 639.159L732.024 647.523L734.89 654.849L739.989 663.463L745.959 670.598L752.873 676.839L761.064 682.601L770.461 687.804L788.337 695.165L808.946 701.25L836.219 707.276L896.842 718.277L924.89 724.135L953.942 731.938L978.241 740.577L1002.34 751.589L1025.42 764.595L1047.06 778.626L1091.81 809.612L1116.11 824.777L1137.05 835.73L1159.55 845.037L1173.16 849.499L1189.78 853.914L1204.49 857.04L1224.28 860.345L1260.56 864.652L1344.08 871.704L1378.28 875.307L1412.25 880.605L1439.45 887M1439.98 278.159L1405.1 282.025L1376.79 286.476L1355.87 291.379L1337.58 297.667L1329.11 301.521L1321.55 305.614L1313.69 310.613L1306.78 315.708L1291.82 329.047L1266.04 355.917L1254.06 367.216L1239.32 378.587L1224.53 387.321L1207.5 394.861L1187.1 401.579L1165.59 407.091L1111.06 419.297L1088.98 425.454L1078.16 429.236L1068.25 433.4L1059.94 437.6L1051.98 442.408L1043.89 448.338L1036.4 455.008L1029.55 462.31L1022.85 470.71L1011.77 487.402L983.937 534.997L976.689 545.652L968.82 555.853L955.721 570.075L925.081 597.041L918.442 603.555L912.341 610.583L908.687 615.88L906.084 620.987L904.591 625.76L904.054 630.735L904.472 634.995L905.427 638.443L907.182 642.368L909.845 646.604L916.46 654.121L927.386 663.38L941.404 673.319L983.268 700.916L1005.49 716.63L1031.09 736.198L1079.15 774.725L1101.03 790.916L1114.15 799.638L1125.83 806.629L1137.84 813.013L1148.87 818.167L1163.53 823.978L1180.58 829.43L1198.65 833.917L1217.65 837.532L1238.21 840.527L1258.86 842.889L1345.21 850.466L1380.11 854.308L1412.63 859.581L1439.79 866.132M1439.51 271.704L1401.04 275.725L1373.39 279.794L1351.02 284.71L1340.71 287.776L1331.29 291.212L1321.49 295.591L1314.54 299.302L1307.23 303.824L1299.66 309.241L1285.54 321.363L1259.66 347.147L1247.47 358.22L1239.03 364.854L1231.35 370.127L1215.72 378.837L1198.52 385.996L1177.33 392.571L1157.84 397.343L1105.3 408.595L1081.74 414.763L1061.5 421.946L1052.4 426.17L1044.29 430.727L1035.44 436.813L1028.31 442.802L1021.25 449.913L1013.94 458.731L1002.67 475.316L984.247 506.839L975.184 521.431L966.05 534.269L955.363 546.785L944.485 557.166L930.896 567.677L918.263 575.838L884.268 595.752L869.127 606.562L862.357 612.957L857.963 618.601L855.133 624.364L854.046 630.687L854.404 634.243L855.431 637.667L859.025 643.836L865.509 650.494L873.581 656.424L882.823 661.9L893.021 667.15L937.977 687.66L957.333 697.015L974.408 706.095L988.033 714.017L1004.95 724.767L1022.6 737.033L1080.06 780.965L1102.75 797.263L1115.39 805.412L1128.42 812.941L1140.54 819.11L1152.32 824.336L1169.81 830.755L1184.93 835.181L1201.68 839.071L1220.71 842.507L1256.95 847.125L1344.03 854.725L1377.5 858.317L1410.06 863.388L1424.08 866.347L1439.34 870.284M1439.52 268.745L1398.9 272.874L1371.25 276.835L1347.45 281.965L1329.72 287.645L1321.12 291.248L1312.8 295.412L1304.8 300.161L1297.13 305.459L1283.35 316.877L1256.14 343.341L1243.28 354.736L1227.6 366.035L1211.9 374.614L1193.31 382.142L1172.73 388.323L1151.12 393.441L1100.63 404.013L1076.36 410.277L1056.79 417.209L1048.33 421.111L1040.8 425.251L1033.04 430.381L1024.69 437.147L1017.57 444.198L1011.08 451.834L1005.14 459.912L998.493 470.113L979.65 502.221L970.062 517.338L959.339 531.668L948.676 543.241L935.661 554.469L920.866 564.539L905.236 573.273L869.402 591.29L858.237 597.745L849.927 603.34L841.699 610.249L836.099 616.74L832.421 623.684L831.49 627.132L831.168 630.699L831.502 634.255L832.481 637.691L835.956 643.919L841.831 650.172L851.097 656.913L862.393 663.117L876.101 669.298L928.878 689.725L948.043 697.743L966.85 706.56L985.812 716.666L1005.41 728.55L1022.62 740.171L1041.13 753.677L1082.75 785.344L1106.21 801.773L1128.34 815.005L1141.12 821.448L1154.27 827.152L1168.41 832.294L1184.9 837.15L1201.64 841.028L1219.26 844.226L1256.21 848.974L1344 856.622L1379.62 860.476L1412.86 865.81L1439.32 872.133M1439.84 262.326L1394.92 266.622L1367.94 270.213L1343.34 275.081L1332.28 278.1L1322.78 281.285L1306.4 288.492L1297.67 293.432L1290.5 298.168L1275.35 310.172L1248.05 335.502L1234.91 346.575L1220.79 356.37L1212.71 361L1203.72 365.426L1186.39 372.251L1164.38 378.67L1143.44 383.443L1090.75 393.955L1067.78 399.55L1047.39 406.316L1039.5 409.716L1031.22 413.976L1022.15 419.727L1014.27 425.931L1007.05 432.875L1000.47 440.452L988.952 456.834L968.522 491.339L959.172 505.753L948.199 519.892L936.664 531.632L930.084 537.156L922.562 542.657L914.096 548.014L905.308 552.846L887.11 561.27L839.908 580.217L825.759 587.137L814.116 594.177L807.764 598.83L802.904 603.066L795.405 611.704L792.468 616.62L790.522 621.226L789.292 626.082L788.91 630.353L789.316 635.341L790.39 639.505L792.396 644.087L795.083 648.31L799.31 653.166L804.146 657.426L814.928 664.466L829.162 671.207L846.667 677.59L865.855 683.425L914.132 697.003L939.35 705.128L960.76 713.337L978.385 721.295L1001.74 733.811L1023.56 747.545L1042.91 761.111L1087.89 794.244L1110.51 809.386L1133.58 822.403L1144.59 827.617L1156.5 832.545L1169.34 837.067L1185.16 841.636L1201.93 845.466L1220.97 848.843L1262.92 853.962L1346.44 861.109L1379.91 864.748L1411.75 869.795L1425.06 872.634L1439.63 876.393M1439.81 290.842L1407.14 295.138L1384.61 299.374L1365.25 304.623L1348.59 311.162L1340.31 315.409L1333.57 319.502L1320.43 329.405L1307.05 342.339L1280.09 372.991L1269.57 383.729L1262.62 389.934L1254.72 396.09L1246.98 401.269L1239.53 405.564L1222.63 413.355L1202.3 420.299L1179.44 426.36L1131.32 437.648L1105.88 445.057L1095.14 449.054L1085.97 453.123L1077.12 457.836L1068.69 463.265L1058.12 471.82L1049.15 481.066L1040.33 492.342L1030.67 507.411L1002.52 559.743L985.203 588.593L979.399 599.296L975.889 607.135L973.31 614.568L971.566 622.24L970.874 630.079L971.304 637.226L972.94 644.922L975.65 652.307L980.283 661.184L985.847 669.524L993.382 679.082L1012.87 700.069L1051.74 737.14L1069.9 753.355L1086.35 767.172L1101.09 778.555L1114.59 787.98L1129.23 796.989L1142.53 804.028L1158.24 810.996L1177.16 817.642L1195.85 822.641L1215.5 826.627L1233.2 829.395L1258.08 832.413L1345.14 840.24L1377.18 843.784L1411.13 849.237L1426.52 852.637L1439.67 856.157M1439.65 284.221L1408.35 287.955L1382.21 292.346L1361.36 297.536L1343.88 303.919L1329.25 311.472L1322.05 316.173L1314.09 322.258L1301.44 333.891L1273.8 363.923L1261.51 375.938L1247.5 387.07L1239.07 392.499L1231.55 396.663L1215.87 403.703L1194.83 410.766L1170.56 417.042L1122.38 428.091L1098.95 434.736L1086.82 439.115L1077.62 443.124L1069.35 447.372L1060.23 453.051L1051.71 459.59L1042.41 468.503L1034.54 477.797L1027.07 488.297L1017.37 504.178L997.537 539.853L987.818 555.722L977.083 570.934L957.799 594.941L950.563 605.596L946.837 612.528L944.437 618.505L942.861 624.746L942.359 630.449L942.801 636.152L944.175 641.7L946.348 646.998L949.906 653.214L953.667 658.44L959.244 664.979L975.161 680.442L1062.41 754.727L1087.43 775.047L1101.8 785.725L1116.06 795.318L1130.86 804.064L1144.26 810.877L1160.75 817.857L1176.35 823.166L1193.64 827.82L1214.7 832.115L1233.1 834.967L1258 837.95L1342.92 845.478L1377.82 849.273L1411.77 854.713L1427.16 858.114L1439.62 861.431M1439.71 281.023L1404.13 285.175L1380.11 289.136L1359.9 293.945L1351.02 296.737L1340.98 300.579L1325.64 308.334L1318.42 312.975L1310.96 318.547L1297.65 330.515L1270.17 359.711L1257.76 371.607L1243.66 382.62L1228.28 391.783L1210.6 399.586L1190.86 406.065L1168.66 411.78L1119.05 422.984L1092.85 430.346L1082.73 433.985L1072.87 438.232L1063.98 442.862L1056.09 447.813L1047.57 454.34L1040.74 460.664L1033.06 469.171L1026.14 478.286L1015.33 495.181L991.937 536.238L980.594 553.622L967.745 569.92L941.321 598.15L932.688 609.569L929.153 615.785L926.98 621.083L925.774 625.939L925.38 630.938L925.881 635.913L927.231 640.734L929.308 645.292L932.329 650.148L941.177 660.469L953.978 671.935L1013.48 717.919L1069.4 763.807L1091.38 781.036L1105.35 791.047L1118.57 799.626L1131.61 807.131L1146.37 814.445L1162.94 821.21L1179.29 826.543L1198.73 831.447L1217.72 835.074L1236.86 837.902L1261.07 840.682L1344.57 848.008L1378.04 851.659L1411.28 856.956L1425.29 859.987L1439.83 863.805M1439.88 274.986L1400.7 279.257L1373.81 283.481L1351.51 288.743L1333.93 294.875L1325.46 298.753L1317.3 303.215L1304.28 312.093L1290.22 324.275L1263.12 351.872L1251.58 362.575L1236.78 373.874L1220.67 383.204L1211.56 387.392L1201.56 391.294L1181.04 397.689L1158.77 403.154L1111.18 413.522L1085.58 420.383L1074.07 424.344L1064.8 428.174L1056.45 432.302L1049.05 436.669L1040.32 442.921L1032.79 449.531L1025.88 456.798L1018.3 466.319L1007.64 482.439L982.277 525.666L973.417 538.696L964.987 549.374L955.745 559.349L944.604 569.443L933.846 577.771L908.818 595.728L894.621 607.755L889.319 613.578L885.307 619.496L882.883 625.45L882.178 631.117L882.596 634.661L883.635 638.085L887.134 644.313L893.391 651.186L902.919 658.75L917.427 667.973L961.763 692.886L989.251 709.71L1005.28 720.532L1022.1 732.726L1080.79 778.578L1102.22 794.161L1114.21 802.012L1125.91 808.956L1137.95 815.304L1150.32 820.983L1166.37 827.14L1183.49 832.366L1200.91 836.506L1219.23 839.882L1256.88 844.751L1345.38 852.518L1378.85 856.169L1412.8 861.622L1439.95 868.172M1439.82 303.514L1409.4 308.37L1386.41 313.87L1375.53 317.45L1366.24 321.232L1357.91 325.372L1350.52 329.763L1339.01 338.282L1327.08 349.617L1317.17 360.928L1294.3 389.409L1280.57 404.001L1273.02 410.599L1265.57 416.183L1257.73 421.194L1248.9 425.955L1233.78 432.481L1214.05 438.984L1196.05 443.78L1146.61 455.676L1123.94 462.394L1111.87 466.928L1100.81 472.022L1091.47 477.332L1083.24 483.047L1071.98 492.998L1062.16 504.381L1052.2 519.235L1042.35 537.514L1027.22 570.744L1017.31 595.299L1014.6 604.2L1012.39 613.971L1011.28 621.775L1010.83 630.341L1011.39 640.352L1013 649.515L1015.59 658.44L1019.33 667.747L1023.85 676.683L1030.97 688.269L1038.03 698.184L1047.39 709.96L1058.73 722.87L1070.63 735.279L1082.5 746.697L1096.49 758.975L1110.01 769.594L1120.56 777.003L1132.71 784.58L1145.32 791.393L1160.98 798.444L1177.16 804.279L1195.08 809.314L1216.11 813.752L1235.22 816.807L1257.96 819.635L1344.27 827.653L1381.28 831.948L1412.35 837.246L1439.45 844.023M1439.76 296.582L1407.86 301.199L1383.35 306.509L1373.06 309.563L1362.97 313.262L1353.84 317.39L1345.67 321.876L1333.88 330.002L1321.08 341.456L1309.49 354.139L1286.48 381.57L1273.45 394.861L1265.82 401.364L1258.91 406.459L1251.05 411.458L1241.58 416.529L1226.44 423.008L1208.08 429.081L1187.3 434.593L1140.6 445.678L1116.53 452.657L1105.76 456.583L1094.62 461.499L1085.17 466.617L1075.65 473.001L1065.3 481.818L1055.2 492.938L1045.25 506.946L1035.57 523.674L1005.57 583.916L999.711 596.981L996.343 606.419L993.991 615.415L992.749 623.194L992.343 630.341L992.857 638.908L994.66 648.036L997.096 655.517L1001.19 664.656L1006.91 674.583L1013.41 684.021L1021.34 694.187L1032.56 707.192L1045.79 721.295L1061.01 736.448L1075.16 749.621L1090.9 763.175L1105.02 774.2L1117.33 782.838L1128.86 790.057L1143.99 798.218L1161.02 805.735L1178.61 811.855L1195.9 816.521L1216.24 820.697L1235.36 823.68L1259.54 826.603L1343.73 834.251L1376.49 837.89L1395.63 840.682L1411.83 843.641L1425.81 846.767L1439.65 850.49M1439.31 287.132L1406.61 291.248L1382.65 295.555L1361.87 301.056L1345.84 307.224L1331.33 315.016L1317.45 325.134L1303.41 338.413L1278.54 366.118L1265.95 378.849L1258.38 385.424L1250.38 391.473L1235.71 400.409L1218.76 408.105L1197.71 415.169L1177.63 420.466L1126.69 432.302L1102.59 439.211L1093.15 442.599L1082.61 447.109L1074.34 451.369L1064.64 457.466L1054.55 465.484L1045.96 474.098L1037.4 484.67L1028.25 498.355L995.4 557.094L986.934 570.374L972.164 591.492L965.871 601.921L962.121 609.64L959.435 617.038L957.715 624.722L957.297 631.141L958.002 638.264L959.877 645.16L962.73 651.723L967.101 659.12L972.176 666.052L979.626 674.751L999.4 694.473L1054.73 744.323L1071.57 758.808L1088.79 772.816L1103.13 783.542L1117.37 793.147L1132.18 801.881L1145.6 808.67L1160.78 815.089L1177.73 820.852L1197.13 825.935L1216.1 829.693L1238.06 832.986L1258.7 835.396L1345.76 843.164L1377.8 846.707L1411.75 852.172L1427.13 855.584L1439.59 858.913M1439.39 316.292L1413.37 321.351L1394.77 326.625L1386.71 329.608L1377.56 333.7L1369.38 338.163L1362.19 342.876L1350.58 352.409L1339.72 363.816L1330.77 374.983L1309.88 403.189L1297.25 417.806L1291.06 423.771L1283.91 429.725L1275.71 435.488L1267.05 440.547L1250.78 447.992L1231.79 454.471L1212.43 459.733L1161.61 472.034L1138.29 479.074L1126.93 483.441L1115.92 488.643L1107.25 493.666L1097.95 500.348L1086.97 510.621L1077.56 522.338L1068.91 536.333L1061.32 551.749L1052.3 574.359L1045.77 594.809L1041.99 613.029L1040.69 630.139L1041.04 639.445L1042.3 649.384L1044.49 659.156L1047.55 668.701L1051.99 679.249L1056.93 688.782L1063.28 699.174L1069.86 708.552L1078.76 719.768L1087.33 729.397L1096.9 739.073L1107.51 748.678L1117.54 756.78L1128.61 764.69L1138.32 770.787L1150.26 777.302L1164.6 783.828L1180.07 789.496L1197.99 794.602L1218.29 798.969L1236.67 801.988L1260.11 804.995L1345.69 813.287L1379.11 817.308L1411.58 822.964L1424.14 825.875L1439.32 830.099M1439.76 309.205L1410.84 314.3L1390.06 319.765L1372.7 326.47L1364.42 330.718L1355.91 336.027L1344.67 344.88L1334.03 355.499L1323.45 368.123L1302.03 395.911L1289.06 410.241L1281.09 417.46L1274.31 422.721L1266.55 427.864L1258.43 432.422L1243.41 439.175L1225.12 445.439L1205.08 450.916L1155.63 462.835L1130.25 470.435L1119.55 474.54L1109.15 479.36L1098.6 485.445L1091.02 490.838L1080.36 500.396L1069.78 512.995L1059.78 528.697L1050.76 546.582L1039.4 573.655L1034.89 585.73L1031.41 596.635L1029.13 605.655L1027.34 615.523L1026.46 624.065L1026.25 631.928L1026.82 641.223L1028.43 651.102L1030.82 660.099L1034.54 670.169L1039.14 679.869L1044.44 689.211L1051.53 699.974L1059.69 710.855L1069.81 722.918L1079.56 733.418L1089.24 742.975L1102.08 754.417L1112.13 762.471L1124.38 771.205L1134.69 777.684L1147.91 784.866L1162.92 791.632L1181.14 798.11L1199.11 802.99L1218.05 806.916L1238.57 810.161L1261.33 812.953L1345.49 820.888L1378.94 824.813L1411.41 830.337L1425.38 833.535L1439.88 837.544M1439.33 329.071L1418.44 334.035L1401.47 339.774L1386.63 346.885L1373.54 355.643L1363.39 364.687L1353.84 375.353L1345.2 386.784L1324.84 416.231L1313.14 430.704L1306.65 437.361L1299.65 443.506L1292.75 448.637L1284.25 453.946L1268.14 461.737L1247.87 468.884L1227.85 474.385L1177.02 486.698L1153.03 493.964L1142.34 498.105L1130.71 503.665L1121.51 509.189L1113.46 515.167L1104.11 524.032L1094.79 535.82L1087.13 548.742L1080.56 563.06L1073.87 581.947L1069.52 598.568L1066.73 615.511L1065.89 631.236L1066.27 640.531L1067.47 650.47L1069.52 660.29L1072.15 669.214L1075.73 678.569L1079.69 686.992L1084.94 696.358L1090.84 705.331L1097.31 713.898L1104.3 722.059L1112.26 730.292L1120.73 738.011L1128.53 744.323L1137.84 750.993L1146.94 756.696L1157.65 762.495L1172.7 769.2L1186.19 774.021L1201.33 778.364L1220.91 782.695L1241.4 786.131L1263.42 789.018L1342.54 797.084L1377.37 801.415L1395.06 804.291L1410.51 807.381L1426.51 811.307L1439.56 815.172M1439.77 341.838L1423.28 346.646L1408.01 352.815L1394.3 360.57L1382.98 369.34L1373.88 378.456L1365.31 389.015L1357.12 400.767L1339.93 427.16L1327.75 443.077L1321.39 449.877L1313.97 456.607L1307.12 461.809L1299.29 466.832L1291.09 471.235L1282.61 475.089L1262.38 482.319L1240.97 488.225L1191.56 500.276L1167.59 507.614L1154.95 512.673L1146.59 516.777L1137.98 521.908L1130.49 527.42L1122.09 535.2L1113.92 545.162L1107.15 556.128L1101.37 568.429L1096.13 583.284L1091.88 599.916L1089.41 615.475L1088.57 631.189L1089.8 648.31L1091.33 656.77L1093.68 665.766L1096.75 674.548L1100.51 683.067L1105.28 691.884L1109.51 698.53L1115.89 707.156L1121.48 713.683L1128.49 720.854L1135.43 727.058L1142.75 732.809L1151.01 738.489L1167.9 747.903L1181.7 753.856L1195.93 758.748L1211.13 762.877L1228.65 766.623L1266.18 772.314L1345.24 780.977L1377.9 785.379L1410.26 791.584L1426.2 795.712L1439.88 799.995M1439.55 354.903L1424.81 360.451L1412.07 366.989L1402.58 373.408L1392.86 381.868L1385.12 390.303L1377.72 399.968L1353.47 437.994L1342.95 452.479L1336.35 460.019L1329.67 466.51L1322.47 472.404L1315.4 477.272L1307.97 481.615L1298.32 486.34L1278.23 493.929L1257.58 499.894L1205.46 512.9L1181.53 520.393L1170.92 524.7L1161.29 529.473L1152.75 534.734L1145.91 539.925L1138.16 547.346L1131.44 555.722L1125.8 564.861L1120.4 576.542L1115.8 590.108L1112.4 604.009L1110.31 618.171L1109.7 631.749L1110.78 646.735L1112.16 654.491L1114.29 662.807L1116.6 669.584L1120.29 678.127L1128.22 691.717L1138.04 704.018L1143.57 709.626L1150.57 715.759L1164 725.28L1179.78 733.74L1191.68 738.703L1203.88 742.844L1217.01 746.471L1233.8 750.181L1267.73 755.67L1345.27 764.941L1379.29 769.94L1396.18 773.15L1412.24 776.872L1425.35 780.523L1439.63 785.248M1439.64 368.171L1428.64 373.385L1418.86 379.362L1409.85 386.414L1402.17 393.919L1395.68 401.567L1388.55 411.422L1366.37 447.372L1356.1 462.036L1350.13 469.183L1343.65 475.852L1336.07 482.415L1328.52 487.855L1321.18 492.318L1312.26 496.9L1303.05 500.885L1290.94 505.299L1268.96 511.814L1218.33 524.879L1195.85 532.169L1185.27 536.584L1176.97 540.796L1169.05 545.699L1162.22 550.913L1155.5 557.345L1149.21 565.136L1143.95 573.667L1139.19 584.083L1135.39 594.881L1132.22 607.373L1130.32 620.104L1129.82 631.547L1130.93 645.805L1133.94 659.061L1138.9 671.708L1145.76 683.449L1154.8 694.545L1165.38 704.186L1177.76 712.693L1191.74 719.959L1202.34 724.302L1213.89 728.18L1225.62 731.437L1239.59 734.635L1271.34 740.159L1346.62 750.122L1379.87 755.515L1396.69 759.011L1410.6 762.471L1426.39 767.184L1439.88 771.992M1439.77 381.892L1431.8 386.7L1424.87 391.783L1417.4 398.465L1411.07 405.278L1404.85 413.14L1399.54 420.8L1377.29 457.538L1367.51 471.664L1361.61 478.859L1355.2 485.612L1347.71 492.27L1340.83 497.425L1332.98 502.412L1323.48 507.447L1313.66 511.802L1303.61 515.596L1281.73 522.433L1231.25 536.107L1209.56 543.492L1193.35 551.081L1186.03 555.591L1178.64 561.246L1172.48 567.224L1167.08 573.906L1162.2 581.828L1157.57 591.504L1154.32 600.226L1151.51 610.583L1149.97 619.758L1149.32 630.473L1150.15 642.607L1152.6 653.787L1156.7 664.466L1162.8 674.989L1170.5 684.403L1180.62 693.471L1191.32 700.654L1204.08 707.18L1215.37 711.714L1226.26 715.282L1240.1 719.004L1255.49 722.381L1282.3 727.082L1354.59 737.832L1388.34 744.347L1414.65 751.315L1428.25 755.849L1439.61 760.216M1439.86 396.484L1433.11 401.806L1426.87 407.7L1421.11 414.083L1415.82 420.86L1406.32 435.166L1386.51 468.371L1374.86 484.682L1363.72 496.792L1351.58 506.827L1343.2 512.315L1335.04 516.825L1324.01 521.956L1314.68 525.643L1294.28 532.396L1245.4 546.463L1225.15 553.646L1216 557.738L1207.8 562.153L1201.8 566.055L1196.15 570.457L1190.96 575.385L1185.9 581.422L1180.73 589.154L1176.36 597.363L1172.89 606.001L1170.7 613.566L1169.28 621.309L1168.67 629.864L1169.39 640.567L1171.64 650.327L1175.78 660.23L1180.68 668.129L1187.17 675.753L1195.78 683.305L1205.32 689.653L1217.44 695.822L1226.74 699.592L1238.29 703.458L1263.96 709.984L1289.99 714.984L1352.87 725.555L1385.81 732.475L1414.06 740.505L1426.22 744.812L1439.49 750.217M1439.96 412.58L1431.63 421.457L1422.2 434.056L1414.18 446.775L1398.2 473.919L1389.07 487.629L1379.2 499.906L1368.49 510.442L1360.64 516.682L1351.7 522.624L1342.95 527.516L1331.27 532.98L1309.8 541.022L1267.37 554.159L1251.1 559.695L1233.95 566.949L1222.14 573.679L1215.24 578.809L1208.97 584.68L1202.88 591.719L1197.65 599.415L1194.02 606.395L1191.24 613.757L1189.4 621.405L1188.61 629.96L1189.32 639.219L1191.47 647.535L1195.01 655.35L1199.36 661.912L1205.59 668.809L1212.74 674.762L1221.77 680.573L1231.36 685.417L1248.75 692.075L1270.81 698.268L1294.61 703.494L1355.09 715.234L1385.75 722.488L1413.12 730.96L1426.51 736.067L1439.64 741.806M1439.65 431.551L1428.12 447.933L1407.66 482.427L1399.44 495.014L1389.35 508.02L1377.29 520.249L1370.08 526.144L1362.46 531.489L1353.86 536.643L1343.01 542.156L1323.15 550.365L1281.81 564.539L1267.05 570.052L1252.7 576.542L1241.58 583.069L1234.63 588.116L1228.69 593.282L1222.81 599.558L1218.17 605.906L1214.43 612.826L1212.18 618.863L1210.93 624.447L1210.44 630.866L1211.14 637.99L1213.15 644.85L1216.37 651.233L1220.59 657.008L1225.58 662.127L1232.32 667.472L1239.6 672.03L1248.55 676.552L1265.22 683.055L1284.45 688.794L1357.69 705.868L1386.74 713.707L1413.84 723.001L1427.73 728.788L1439.39 734.277M1439.88 452.932L1416.37 492.27L1407.34 506.039L1396.74 519.557L1390.37 526.346L1384.08 532.205L1377.42 537.634L1369.23 543.409L1360.03 548.957L1351.15 553.61L1332.83 561.771L1286.23 580.277L1273.37 586.577L1262.3 593.187L1255.93 597.816L1250.52 602.517L1246.57 606.657L1242.64 611.764L1240.1 616.083L1238.13 620.689L1236.85 625.533L1236.39 630.508L1236.94 636.2L1238.36 640.996L1240.92 646.115L1244.75 651.293L1249.31 655.851L1254.94 660.254L1260.98 664.096L1269.24 668.403L1281.1 673.45L1299.4 679.714L1361.49 697.086L1390.17 706.154L1414.23 715.437L1439.44 727.464M1439.83 442.42L1432.33 453.779L1413.41 485.839L1404.44 499.644L1392.49 514.833L1380.76 526.382L1372.92 532.634L1364.63 538.266L1347.66 547.525L1328.56 555.686L1276.85 574.896L1263.27 581.315L1251.58 588.283L1244.65 593.366L1239.28 598.102L1234.86 602.792L1230.56 608.519L1227.41 614.126L1225.09 620.14L1223.8 625.712L1223.44 631.415L1224.08 637.107L1225.69 642.595L1228.57 648.346L1232.82 654.097L1237.9 659.144L1244.14 663.941L1251.47 668.427L1259.15 672.281L1273.09 677.924L1290.13 683.413L1359.53 701.191L1388.4 709.638L1413.98 718.957L1427.77 724.958L1440 730.936M1439.98 476.998L1425.15 502.328L1414.95 517.899L1403.86 531.954L1392.81 543.17L1380.57 553.073L1364.88 563.107L1349.02 571.412L1309.52 590.085L1299.49 595.621L1290.45 601.443L1281.57 608.65L1275.41 615.618L1271.61 622.491L1270.55 625.915L1270.01 630.162L1270.36 634.434L1271.56 638.55L1273.5 642.38L1276.45 646.425L1280.46 650.518L1284.91 654.121L1295.85 660.922L1306.81 666.231L1320.07 671.672L1372.03 690.154L1396.07 699.496L1419.56 710.127L1439.8 720.878M1439.74 466.665L1421.96 496.911L1412.57 511.313L1401.09 525.953L1388.94 538.099L1375.95 548.205L1359.4 558.192L1340.69 567.212L1300.54 584.465L1288.39 590.598L1277.95 596.862L1267.22 605.202L1262.68 609.772L1259.55 613.685L1256.9 617.933L1254.9 622.526L1253.84 626.69L1253.51 630.962L1253.95 635.233L1255.42 640.006L1257.77 644.433L1260.78 648.43L1264.81 652.51L1269.84 656.531L1282.76 664.191L1294.53 669.477L1309.29 674.989L1367.34 693.364L1393.01 702.408L1417.44 712.681L1439.81 724.004M1439.69 502.591L1429.77 519.176L1421.38 531.668L1413.05 542.406L1403.87 552.453L1393.29 562.105L1383.08 569.968L1372.98 576.769L1342.55 595.668L1327.61 606.765L1321.43 612.719L1316.66 618.971L1313.94 624.793L1313 630.425L1314.04 636.761L1315.48 640.03L1317.8 643.645L1324.19 650.386L1333.37 657.223L1352.06 667.83L1409.89 696.311L1425.56 704.961L1439.7 713.432M1439.69 491.972L1428.41 511.086L1418.89 525.392L1409.15 537.765L1399.27 548.133L1387.87 557.929L1374.37 567.367L1362.05 574.669L1328.02 593.055L1317.67 599.463L1309.52 605.309L1302.05 611.991L1297.09 618.1L1293.94 624.495L1292.91 630.831L1293.3 634.386L1294.32 637.811L1296.29 641.629L1298.83 645.089L1305.55 651.508L1315.63 658.333L1325.07 663.439L1337.39 669.214L1381.67 687.744L1401.93 696.812L1422.42 707.085L1439.88 716.964M1440 526.549L1426.67 546.916L1414.09 562.511L1401.47 575.206L1376.75 596.981L1365.9 608.387L1361.65 614.138L1358.53 619.77L1356.83 624.483L1356.01 630.139L1356.96 637.202L1359.84 643.74L1364.46 650.112L1370.98 656.746L1379.25 663.606L1389.67 671.195L1439.61 704.746M1439.75 516.205L1430.71 530.821L1423.76 540.807L1415.76 550.913L1407.53 559.886L1399.75 567.283L1392.08 573.75L1359.52 598.365L1351.99 604.987L1346.48 610.607L1342.07 616.25L1339.26 621.226L1337.62 625.951L1337.06 630.926L1338.17 637.238L1341.41 643.609L1346.42 649.67L1354.49 656.746L1370.51 667.58L1415.07 693.543L1439.94 709.137M1439.95 549.995L1426.89 568.811L1407.23 592.519L1398.41 604.677L1394.47 611.49L1391.6 618.052L1389.77 624.96L1389.28 630.664L1389.91 637.059L1391.74 643.227L1395.25 650.267L1400.15 657.319L1406.24 664.358L1414.38 672.436L1439.84 694.426M1439.67 539.054L1430.98 552.202L1420.97 565.267L1412.91 574.395L1393.46 594.44L1383.88 606.025L1379.58 612.611L1376.43 619.03L1374.58 625.199L1374.03 630.89L1374.84 637.262L1377.34 643.955L1381.47 650.661L1387.46 657.772L1395.19 665.229L1405.06 673.522L1439.86 699.938M1439.62 572.844L1426.64 592.59L1419.51 605.822L1416.55 613.112L1414.73 619.293L1413.36 629.924L1413.63 635.639L1414.63 641.283L1416.8 648.096L1419.49 653.954L1427.15 666.029L1439.59 680.824M1439.92 595.144L1435.93 604.331L1432.62 614.544L1430.89 623.684L1430.47 630.819L1431.04 638.67L1432.88 647.057L1435.56 654.455L1439.69 662.795" stroke="white" stroke-opacity="0.1"/>
<path d="M336.179 -381L340 -379.019M-375.952 -351.124L-328.13 -346.959L-296.833 -343.249L-272.14 -338.87L-260.999 -336.173L-250.026 -332.88L-239.948 -329.146L-232.091 -325.662L-215.863 -316.546L-199.146 -304.245L-170.381 -279.475L-157.939 -269.822L-142.249 -259.8L-126.165 -251.949L-107.31 -245.112L-84.4678 -239.039L-62.7238 -234.529L-10.5788 -224.96L14.5564 -219.221L33.6973 -213.219L50.056 -205.977L58.6892 -200.87L66.773 -194.952L74.2121 -188.235L80.9705 -180.837L86.6781 -173.487L92.7321 -164.61L113.604 -129.544L122.644 -115.787L133.354 -102.34L144.591 -91.327L151.886 -85.5402L160.209 -79.9443L168.926 -74.9928L180.568 -69.4446L201.978 -61.2835L245.024 -47.7174L259.914 -42.5749L275.747 -35.8932L288.834 -28.4838L295.151 -23.7828L301.981 -17.471L308.095 -10.4553L312.942 -3.36798L316.608 3.60002L319.57 11.6538L321.241 19.3496L321.767 26.4847L321.277 33.6197L319.522 41.2916L316.525 48.5699L312.417 55.2753L307.366 61.3127L300.464 67.5529L293.443 72.4925L285.347 77.0981L268.905 84.1735L248.403 90.5687L224.008 96.3675L166.394 107.834L138.441 114.157L110.894 122.02L97.3651 126.757L84.7318 131.804L62.7371 142.256L40.3841 155.094L19.4282 168.863L-28.6331 202.606L-49.804 216.028L-72.5391 228.187L-94.9876 237.601L-109.269 242.326L-125.878 246.764L-139.885 249.771L-161.079 253.326L-198.084 257.681L-280.892 264.685L-314.374 268.241L-346.936 273.288L-360.955 276.235L-375.522 279.969M-375.57 -338.452L-333.503 -334.336L-304.404 -330.339L-280.558 -325.399L-260.748 -319.195L-244.437 -311.809L-229.249 -302.348L-213.678 -289.724L-185.606 -263.129L-173.605 -252.915L-158.954 -242.642L-143.192 -234.159L-124.577 -226.738L-101.889 -220.116L-79.5364 -215.021L-31.093 -205.154L-7.47427 -199.247L12.8608 -192.303L21.3625 -188.509L28.9449 -184.464L37.363 -179.024L45.2081 -172.783L52.4083 -165.815L58.9638 -158.227L70.1044 -142.442L92.0156 -105.49L100.995 -91.6849L111.491 -78.083L122.918 -66.2231L136.841 -54.9956L153.283 -44.8299L171.254 -35.941L213.858 -17.1608L225.907 -10.8251L235.005 -5.1219L245.048 2.94381L251.627 10.4845L254.218 14.7679L255.902 18.7173L256.964 22.8813L257.275 26.4369L256.917 30.7203L255.508 35.5168L253.561 39.3468L251.102 42.8666L243.985 49.8943L233.262 57.0293L221.071 63.0666L204.413 69.6289L145.82 88.6716L122.882 96.8566L100.398 106.223L81.7347 115.339L62.4027 126.256L42.5214 139.034L20.3595 154.832L-22.0897 186.57L-43.965 201.52L-56.1923 208.977L-68.133 215.503L-80.3961 221.41L-91.6323 226.111L-106.487 231.36L-122.332 235.882L-139.109 239.665L-156.028 242.672L-196.543 247.719L-282.206 255.104L-314.255 258.564L-347.509 263.79L-360.823 266.63L-375.391 270.388M-375.63 -344.871L-332.118 -340.874L-300.141 -336.782L-276.235 -332.129L-256.306 -326.294L-247.626 -322.917L-237.906 -318.348L-223.171 -309.506L-207.326 -297.241L-180.256 -272.71L-167.563 -262.222L-151.551 -251.4L-135.634 -243.215L-116.218 -235.841L-96.2295 -230.21L-73.1481 -225.103L-22.5076 -215.295L1.88726 -209.509L22.3297 -202.91L31.5718 -198.997L39.2258 -195.095L47.1544 -190.215L55.1547 -184.178L63.5012 -176.339L69.6388 -169.347L80.875 -153.621L101.711 -118.531L111.085 -104.13L121.664 -90.5992L133.784 -78.4291L140.435 -72.9883L149.235 -66.8316L157.857 -61.7011L168.711 -56.1887L188.532 -47.8844L225.596 -34.533L238.922 -29.2832L251.269 -23.5441L263.03 -16.7193L274.971 -7.59172L280.5 -1.99587L284.918 3.64776L287.891 8.53969L290.494 14.4219L292.01 19.9462L292.667 26.3415L292.225 32.0447L290.828 37.5929L288.524 42.8308L285.025 48.2358L281.276 52.5669L275.962 57.3515L269.538 61.9212L262.732 65.8706L247.042 72.8863L226.659 79.6634L207.291 84.9132L154.442 97.9782L128.28 105.483L106.619 113L86.1527 121.603L63.1908 133.331L39.9542 147.494L21.0521 160.463L-22.9852 192.452L-48.0846 209.037L-59.8461 215.873L-72.5749 222.46L-84.9694 228.055L-95.6444 232.231L-109.233 236.765L-124.445 240.918L-139.132 244.151L-156.769 247.241L-198.728 252.348L-280.104 259.268L-314.302 262.907L-346.853 267.978L-360.871 270.937L-375.451 274.684M-375.916 -348.141L-328.118 -343.833L-296.129 -339.777L-272.916 -335.314L-252.282 -329.349L-242.933 -325.721L-234.491 -321.784L-227.565 -318.038L-218.478 -312.31L-203.672 -301.023L-174.68 -275.442L-162.333 -265.646L-147.348 -255.851L-130.702 -247.534L-111.896 -240.59L-90.474 -234.744L-70.1629 -230.365L-15.2596 -219.973L7.76203 -214.579L27.5478 -208.28L37.4466 -204.104L45.1006 -200.19L53.0173 -195.298L60.9937 -189.225L68.3133 -182.388L75.418 -174.334L86.5826 -158.561L106.667 -124.688L115.646 -110.883L127.659 -95.7417L138.931 -84.7528L146.226 -78.966L154.537 -73.3582L162.597 -68.7049L173.523 -63.3238L194.801 -54.8286L248.343 -36.4898L262.78 -30.19L274.004 -23.8544L281.574 -18.4375L288.619 -12.3644L294.494 -6.10032L298.781 -0.361263L302.685 6.4755L305.121 12.4293L306.888 19.3615L307.521 25.7687L307.151 32.1879L305.551 39.1559L303.079 45.0977L299.318 51.1948L294.697 56.6594L288.297 62.3865L281.252 67.2903L273.753 71.5022L265.968 75.1413L255.961 79.0548L234.05 85.7842L213.882 90.7477L157.928 103.133L130.883 110.148L107.013 117.82L85.7348 126.327L63.2385 137.388L39.8228 151.252L19.6311 164.854L-26.4122 197.749L-48.6577 212.151L-60.4671 218.916L-71.9302 224.81L-82.3544 229.571L-95.0116 234.594L-108.588 239.14L-123.789 243.304L-141.294 247.098L-158.238 249.974L-196.651 254.639L-279.448 261.678L-312.941 265.198L-347.617 270.567L-361.635 273.55L-375.51 277.13M-375.988 -354.608L-324.595 -350.217L-295.412 -346.84L-269.298 -342.342L-247.841 -336.674L-239.052 -333.572L-229.177 -329.36L-220.878 -325.137L-212.257 -320.006L-196.579 -308.707L-166.954 -283.842L-153.808 -273.927L-137.95 -264.167L-121.759 -256.543L-104.206 -250.338L-82.7365 -244.671L-56.0491 -239.278L-6.67427 -230.508L17.1235 -225.33L39.0705 -218.732L47.7156 -215.283L56.7308 -210.905L65.9251 -205.344L73.9135 -199.295L80.7436 -192.971L87.4423 -185.514L93.5201 -177.544L99.8726 -168.011L118.488 -136.595L127.073 -123.387L137.677 -109.869L143.074 -104.141L149.928 -97.8416L158.43 -91.2793L166.251 -86.2322L175.039 -81.412L185.44 -76.5916L209.655 -67.7384L253.597 -54.6615L270.601 -49.0298L286.494 -42.4914L300.237 -34.8075L307.115 -29.665L313.336 -23.747L319.271 -16.5761L324.752 -8.18829L328.585 -0.504408L331.749 8.24139L333.779 17.3212L334.483 25.8762L333.874 35.1588L331.976 43.5228L329.11 50.8488L324.011 59.4633L318.041 66.5984L311.127 72.8386L302.936 78.6014L293.539 83.8036L275.663 91.1653L255.054 97.2504L227.781 103.276L167.158 114.277L139.11 120.135L110.058 127.938L85.7586 136.577L61.6623 147.589L38.581 160.595L16.9444 174.626L-27.8093 205.612L-52.1086 220.777L-73.0526 231.73L-95.5489 241.037L-109.161 245.499L-125.783 249.914L-140.494 253.04L-160.279 256.345L-196.555 260.652L-280.08 267.704L-314.279 271.307L-348.25 276.605L-375.451 283M-375.976 -325.841L-341.097 -321.975L-312.786 -317.524L-291.866 -312.621L-273.585 -306.333L-265.107 -302.479L-257.548 -298.386L-249.691 -293.387L-242.778 -288.292L-227.816 -274.953L-202.036 -248.083L-190.059 -236.784L-175.325 -225.413L-160.53 -216.679L-143.503 -209.139L-123.096 -202.421L-101.591 -196.909L-47.0576 -184.703L-24.9793 -178.546L-14.161 -174.764L-4.25027 -170.6L4.06046 -166.4L12.0249 -161.592L20.1088 -155.662L27.5956 -148.992L34.4495 -141.69L41.1483 -133.29L52.2293 -116.598L80.063 -69.0032L87.311 -58.3484L95.1799 -48.1469L108.279 -33.9246L138.919 -6.95939L145.558 -0.444815L151.659 6.58285L155.313 11.8804L157.916 16.9871L159.409 21.7597L159.946 26.7352L159.528 30.9947L158.573 34.4429L156.818 38.3684L154.155 42.6041L147.54 50.1209L136.614 59.3798L122.596 69.3187L80.7317 96.9163L58.51 112.63L32.9092 132.198L-15.1521 170.725L-37.0275 186.916L-50.1503 195.638L-61.8283 202.629L-73.8406 209.013L-84.8738 214.167L-99.525 219.978L-116.576 225.43L-134.655 229.917L-153.652 233.532L-174.214 236.527L-194.86 238.889L-281.215 246.466L-316.105 250.308L-348.632 255.581L-375.785 262.132M-375.51 -332.296L-337.037 -328.275L-309.395 -324.206L-287.018 -319.29L-276.713 -316.224L-267.292 -312.788L-257.489 -308.409L-250.539 -304.698L-243.231 -300.176L-235.661 -294.759L-221.535 -282.637L-195.66 -256.853L-183.468 -245.78L-175.026 -239.146L-167.348 -233.873L-151.718 -225.163L-134.523 -218.004L-113.329 -211.429L-93.8413 -206.657L-41.3023 -195.405L-17.7433 -189.237L2.4962 -182.054L11.595 -177.83L19.7147 -173.273L28.5628 -167.187L35.6914 -161.198L42.7483 -154.087L50.056 -145.269L61.328 -128.684L79.7525 -97.1615L88.8155 -82.5693L97.9501 -69.731L108.637 -57.2148L119.515 -46.8344L133.104 -36.3228L145.737 -28.1616L179.732 -8.24796L194.873 2.56201L201.643 8.95727L206.037 14.6009L208.867 20.3638L209.954 26.6875L209.596 30.2431L208.569 33.6674L204.975 39.836L198.491 46.4938L190.419 52.4237L181.177 57.9003L170.979 63.1502L126.023 83.6604L106.667 93.0147L89.5917 102.095L75.9673 110.017L59.0474 120.767L41.399 133.033L-16.0596 176.965L-38.7469 193.263L-51.3921 201.412L-64.4194 208.941L-76.5392 215.11L-88.3247 220.336L-105.806 226.755L-120.935 231.181L-137.676 235.071L-156.709 238.507L-192.949 243.125L-280.033 250.725L-313.502 254.317L-346.065 259.388L-360.083 262.347L-375.343 266.284M-375.522 -335.255L-334.9 -331.126L-307.245 -327.165L-283.448 -322.035L-265.716 -316.355L-257.118 -312.752L-248.796 -308.588L-240.795 -303.839L-233.129 -298.541L-219.35 -287.123L-192.137 -260.659L-179.277 -249.264L-163.599 -237.965L-147.897 -229.386L-129.305 -221.858L-108.731 -215.677L-87.1187 -210.559L-36.6334 -199.987L-12.3579 -193.723L7.21286 -186.791L15.6669 -182.889L23.2015 -178.749L30.9629 -173.619L39.3094 -166.853L46.4261 -159.802L52.9218 -152.166L58.8564 -144.088L65.5073 -133.887L84.3498 -101.779L93.9381 -86.6618L104.661 -72.3321L115.324 -60.7585L128.339 -49.531L143.134 -39.4608L158.764 -30.727L194.598 -12.7104L205.763 -6.25542L214.073 -0.659559L222.301 6.2488L227.901 12.7395L231.579 19.6837L232.51 23.1319L232.832 26.6994L232.498 30.255L231.519 33.6912L228.044 39.9195L222.169 46.1716L212.903 52.9129L201.607 59.1173L187.899 65.2978L135.122 85.7245L115.957 93.7425L97.1502 102.56L78.1884 112.666L58.5937 124.55L41.3752 136.171L22.8671 149.677L-18.7462 181.344L-42.2097 197.773L-64.3358 211.005L-77.1243 217.448L-90.2709 223.152L-104.409 228.294L-120.899 233.15L-137.64 237.028L-155.264 240.226L-192.209 244.974L-279.997 252.622L-315.616 256.476L-348.859 261.81L-375.319 268.133M-375.845 -341.674L-330.924 -337.378L-303.938 -333.787L-279.34 -328.919L-268.283 -325.9L-258.778 -322.715L-242.396 -315.508L-233.667 -310.568L-226.502 -305.832L-211.35 -293.828L-184.053 -268.498L-170.907 -257.425L-156.793 -247.63L-148.709 -243L-139.717 -238.574L-122.391 -231.749L-100.385 -225.33L-79.4409 -220.557L-26.7466 -210.045L-3.78461 -204.45L16.6101 -197.684L24.5029 -194.284L32.7778 -190.024L41.8527 -184.273L49.7336 -178.069L56.9458 -171.125L63.5251 -163.548L75.0479 -147.166L95.4784 -112.661L104.828 -98.2473L115.801 -84.1084L127.336 -72.3678L133.916 -66.8436L141.438 -61.3432L149.904 -55.9859L158.692 -51.1537L176.89 -42.73L224.092 -23.7828L238.241 -16.8625L249.884 -9.82292L256.236 -5.16964L261.096 -0.933947L268.595 7.70447L271.532 12.6202L273.478 17.2258L274.708 22.0819L275.09 26.3534L274.684 31.3408L273.61 35.5048L271.604 40.0866L268.917 44.3103L264.69 49.1664L259.854 53.426L249.072 60.4655L234.838 67.2068L217.333 73.5902L198.145 79.4247L149.868 93.0027L124.65 101.128L103.24 109.337L85.6154 117.295L62.2594 129.811L40.4437 143.545L21.0879 157.111L-23.8927 190.244L-46.5084 205.386L-69.5778 218.403L-80.5872 223.617L-92.504 228.545L-105.34 233.067L-121.162 237.636L-137.926 241.466L-156.972 244.843L-198.919 249.962L-282.445 257.109L-315.914 260.748L-347.748 265.795L-361.062 268.634L-375.63 272.393M-375.809 -313.158L-343.139 -308.862L-320.607 -304.626L-301.251 -299.377L-284.594 -292.838L-276.307 -288.591L-269.573 -284.498L-256.426 -274.595L-243.052 -261.661L-216.09 -231.009L-205.57 -220.271L-198.621 -214.066L-190.716 -207.91L-182.979 -202.731L-175.528 -198.436L-158.632 -190.645L-138.296 -183.701L-115.442 -177.64L-67.321 -166.352L-41.8754 -158.943L-31.1407 -154.946L-21.9702 -150.877L-13.1222 -146.164L-4.69203 -140.735L5.8755 -132.18L14.8549 -122.934L23.6671 -111.658L33.3271 -96.5888L61.4833 -44.2573L78.7973 -15.4069L84.6005 -4.70432L88.1111 3.13469L90.6903 10.568L92.4336 18.2399L93.1261 26.079L92.6963 33.2259L91.0604 40.9217L88.3498 48.3073L83.7169 57.1843L78.1525 65.5245L70.6179 75.0816L51.1307 96.0691L12.2638 133.14L-5.89804 149.355L-22.3524 163.172L-37.0871 174.555L-50.5921 183.98L-65.2314 192.989L-78.5333 200.028L-94.2353 206.996L-113.161 213.642L-131.848 218.641L-151.503 222.627L-169.199 225.395L-194.083 228.413L-281.143 236.24L-313.18 239.784L-347.127 245.237L-362.519 248.637L-375.666 252.157M-375.654 -319.779L-344.345 -316.045L-318.207 -311.654L-297.359 -306.464L-279.877 -300.081L-265.25 -292.528L-258.05 -287.827L-250.085 -281.742L-237.44 -270.109L-209.797 -240.077L-197.51 -228.062L-183.504 -216.93L-175.074 -211.501L-167.551 -207.337L-151.873 -200.297L-130.834 -193.234L-106.558 -186.958L-58.3774 -175.909L-34.9498 -169.264L-22.8181 -164.885L-13.6237 -160.876L-5.34882 -156.628L3.77387 -150.949L12.2876 -144.41L21.5894 -135.497L29.4583 -126.203L36.9332 -115.703L46.629 -99.8223L66.4625 -64.1471L76.1823 -48.2782L86.917 -33.0655L106.201 -9.05932L113.437 1.59552L117.163 8.52771L119.563 14.5054L121.139 20.7456L121.641 26.4488L121.199 32.1521L119.825 37.7003L117.652 42.9978L114.094 49.2141L110.333 54.4401L104.756 60.9786L88.8394 76.4418L1.58874 150.727L-23.427 171.047L-37.8036 181.725L-52.0608 191.318L-66.8554 200.064L-80.2647 206.877L-96.7549 213.857L-112.349 219.166L-129.64 223.82L-150.703 228.115L-169.104 230.967L-194 233.95L-278.922 241.478L-313.825 245.273L-347.772 250.713L-363.164 254.114L-375.618 257.431M-375.713 -322.977L-340.13 -318.825L-316.105 -314.864L-295.902 -310.055L-287.018 -307.263L-276.976 -303.421L-261.644 -295.666L-254.42 -291.025L-246.957 -285.453L-233.655 -273.485L-206.167 -244.289L-193.761 -232.393L-179.659 -221.38L-164.279 -212.217L-146.595 -204.414L-126.857 -197.935L-104.66 -192.22L-55.046 -181.016L-28.8481 -173.654L-18.7343 -170.015L-8.87132 -165.768L0.0245017 -161.138L7.90539 -156.187L16.431 -149.66L23.2611 -143.336L30.939 -134.829L37.8646 -125.714L48.6709 -108.819L72.0627 -67.7623L83.4064 -50.3781L96.2546 -34.0797L122.679 -5.84974L131.312 5.56873L134.847 11.785L137.02 17.0826L138.226 21.9387L138.62 26.9381L138.119 31.9135L136.769 36.7338L134.692 41.2916L131.671 46.1478L122.823 56.4685L110.022 67.9347L50.5217 113.919L-5.39657 159.807L-27.3794 177.036L-41.35 187.047L-54.5683 195.626L-67.6076 203.131L-82.3663 210.445L-98.94 217.21L-115.287 222.543L-134.726 227.447L-153.724 231.074L-172.865 233.902L-197.069 236.682L-280.57 244.008L-314.04 247.659L-347.283 252.956L-361.289 255.987L-375.833 259.805M-375.881 -329.014L-336.703 -324.743L-309.813 -320.519L-287.508 -315.257L-269.931 -309.125L-261.465 -305.247L-253.297 -300.785L-240.282 -291.907L-226.216 -279.725L-199.123 -252.128L-187.576 -241.425L-172.781 -230.126L-156.673 -220.796L-147.563 -216.608L-137.556 -212.706L-117.042 -206.311L-94.7727 -200.846L-47.1771 -190.478L-21.5763 -183.617L-10.0654 -179.656L-0.79945 -175.826L7.5471 -171.698L14.9503 -167.331L23.679 -161.079L31.2135 -154.469L38.1153 -147.202L45.6976 -137.681L56.3607 -121.561L81.7227 -78.3336L90.5827 -65.3044L99.0128 -54.6257L108.255 -44.6509L119.396 -34.5569L130.154 -26.2287L155.182 -8.27182L169.379 3.75514L174.681 9.5777L178.693 15.4957L181.117 21.4496L181.822 27.117L181.404 30.6607L180.365 34.085L176.866 40.3132L170.609 47.1858L161.081 54.7504L146.573 63.9734L102.237 88.8864L74.7493 105.71L58.7249 116.532L41.9005 128.726L-16.788 174.578L-38.2216 190.161L-50.2101 198.012L-61.9119 204.956L-73.9482 211.304L-86.3188 216.983L-102.367 223.14L-119.49 228.366L-136.911 232.506L-155.229 235.882L-192.878 240.751L-281.382 248.518L-314.852 252.169L-348.799 257.622L-375.952 264.172M-375.821 -300.486L-345.396 -295.63L-322.41 -290.13L-311.532 -286.55L-302.242 -282.768L-293.908 -278.628L-286.516 -274.237L-275.006 -265.718L-263.077 -254.383L-253.166 -243.072L-230.3 -214.591L-216.568 -199.999L-209.021 -193.401L-201.57 -187.817L-193.725 -182.806L-184.901 -178.045L-169.784 -171.519L-150.046 -165.016L-132.052 -160.22L-82.6051 -148.324L-59.9417 -141.606L-47.8696 -137.072L-36.8125 -131.978L-27.4749 -126.668L-19.2358 -120.953L-7.97574 -111.002L1.83954 -99.6194L11.7981 -84.7647L21.6491 -66.4856L36.778 -33.2564L46.6888 -8.70138L49.3993 0.199518L51.6083 9.9714L52.7188 17.7746L53.1726 26.3414L52.6113 36.352L50.9994 45.5154L48.4083 54.4401L44.6708 63.7467L40.1453 72.6834L33.0286 84.2689L25.9717 94.1839L16.6102 105.96L5.26651 118.87L-6.62642 131.279L-18.4955 142.697L-32.49 154.975L-46.0069 165.594L-56.5624 173.003L-68.7061 180.58L-81.3155 187.393L-96.9817 194.444L-113.161 200.279L-131.084 205.314L-152.112 209.752L-171.217 212.807L-193.964 215.635L-280.271 223.653L-317.276 227.948L-348.345 233.246L-375.451 240.023M-375.761 -307.418L-343.856 -302.801L-319.353 -297.491L-309.06 -294.437L-298.97 -290.738L-289.836 -286.61L-281.668 -282.124L-269.883 -273.998L-257.083 -262.544L-245.488 -249.861L-222.478 -222.43L-209.451 -209.139L-201.821 -202.636L-194.907 -197.541L-187.05 -192.542L-177.581 -187.471L-162.441 -180.992L-144.076 -174.919L-123.299 -169.407L-76.599 -158.322L-52.5265 -151.343L-41.756 -147.417L-30.6153 -142.501L-21.1702 -137.383L-11.6535 -130.999L-1.30092 -122.182L8.80092 -111.062L18.7475 -97.0542L28.4314 -80.3262L58.4264 -20.084L64.2893 -7.01904L67.6566 2.41876L70.0089 11.4151L71.2508 19.1945L71.6567 26.3414L71.1433 34.9083L69.3402 44.0359L66.9043 51.5169L62.8087 60.6564L57.0891 70.5835L50.5933 80.0213L42.6647 90.1869L31.4405 103.192L18.2102 117.295L2.98581 132.448L-11.1639 145.621L-26.9017 159.175L-41.0156 170.2L-53.3266 178.838L-64.8612 186.057L-79.9901 194.218L-97.0175 201.735L-114.606 207.855L-131.896 212.521L-152.243 216.697L-171.36 219.68L-195.54 222.603L-279.734 230.251L-312.487 233.89L-331.628 236.682L-347.832 239.641L-361.814 242.767L-375.654 246.49M-375.307 -316.868L-342.614 -312.752L-318.649 -308.445L-297.872 -302.944L-281.836 -296.776L-267.328 -288.984L-253.453 -278.866L-239.41 -265.587L-214.538 -237.882L-201.952 -225.151L-194.382 -218.576L-186.382 -212.527L-171.707 -203.591L-154.763 -195.895L-133.711 -188.831L-113.627 -183.534L-62.6881 -171.698L-38.5918 -164.789L-29.1467 -161.401L-18.615 -156.891L-10.3401 -152.631L-0.644256 -146.534L9.44562 -138.516L18.0429 -129.902L26.6044 -119.33L35.751 -105.645L68.5998 -46.906L77.0658 -33.6263L91.8364 -12.5075L98.1292 -2.07939L101.879 5.6403L104.565 13.0378L106.285 20.7217L106.703 27.1409L105.998 34.264L104.123 41.1604L101.27 47.7227L96.8993 55.1202L91.8245 62.0525L84.3735 70.7505L64.5997 90.4733L9.26652 140.323L-7.56987 154.808L-24.7884 168.816L-39.1291 179.542L-53.3744 189.147L-68.1808 197.881L-81.6022 204.67L-96.7788 211.089L-113.735 216.852L-133.126 221.935L-152.1 225.693L-174.059 228.986L-194.704 231.396L-281.764 239.164L-313.801 242.707L-347.748 248.172L-363.128 251.584L-375.594 254.913M-375.391 -287.708L-349.372 -282.649L-330.769 -277.375L-322.709 -274.392L-313.562 -270.3L-305.383 -265.837L-298.194 -261.124L-286.576 -251.591L-275.722 -240.184L-266.767 -229.017L-245.882 -200.811L-233.249 -186.194L-227.064 -180.229L-219.911 -174.275L-211.708 -168.512L-203.051 -163.453L-186.776 -156.008L-167.79 -149.529L-148.434 -144.267L-97.6146 -131.966L-74.2945 -124.926L-62.927 -120.559L-51.9176 -115.357L-43.2487 -110.334L-33.9469 -103.652L-22.9734 -93.3792L-13.5641 -81.6625L-4.90709 -67.6669L2.67525 -52.2513L11.7024 -29.6411L18.234 -9.19056L22.0072 9.02885L23.3088 26.1386L22.9625 35.4452L21.6968 45.3841L19.5116 55.156L16.4548 64.7012L12.0129 75.2487L7.0694 84.7819L0.716956 95.1743L-5.86236 104.552L-14.7582 115.768L-23.3316 125.397L-32.8961 135.073L-43.5114 144.678L-53.5416 152.78L-64.6106 160.69L-74.3184 166.787L-86.2591 173.302L-100.6 179.828L-116.075 185.496L-133.986 190.602L-154.285 194.969L-172.674 197.988L-196.113 200.995L-281.692 209.287L-315.114 213.308L-347.581 218.964L-360.143 221.875L-375.319 226.099M-375.761 -294.795L-346.841 -289.7L-326.064 -284.235L-308.702 -277.53L-300.415 -273.282L-291.914 -267.973L-280.666 -259.12L-270.026 -248.501L-259.447 -235.877L-238.025 -208.089L-225.058 -193.759L-217.093 -186.54L-210.311 -181.279L-202.55 -176.136L-194.43 -171.578L-179.408 -164.825L-161.115 -158.561L-141.079 -153.084L-91.6324 -141.165L-66.2464 -133.565L-55.5476 -129.46L-45.1472 -124.64L-34.6036 -118.555L-27.0213 -113.162L-16.3582 -103.604L-5.77877 -91.0049L4.21558 -75.303L13.2428 -57.4177L24.5984 -30.3451L29.112 -18.2704L32.5867 -7.36502L34.8674 1.65519L36.6585 11.5225L37.5421 20.0655L37.7451 27.9283L37.1839 37.223L35.5719 47.1023L33.1837 56.0986L29.4582 66.1688L24.8611 75.8691L19.5594 85.2115L12.4666 95.9737L4.31113 106.855L-5.81461 118.918L-15.5582 129.418L-25.2421 138.975L-38.0784 150.417L-48.1324 158.471L-60.3836 167.205L-70.6884 173.684L-83.9067 180.866L-98.9162 187.632L-117.138 194.11L-135.108 198.99L-154.046 202.916L-174.572 206.161L-197.331 208.953L-281.489 216.888L-314.935 220.813L-347.414 226.337L-361.385 229.535L-375.881 233.544M-375.331 -274.929L-354.435 -269.965L-337.467 -264.226L-322.625 -257.115L-309.538 -248.357L-299.388 -239.313L-289.836 -228.647L-281.203 -217.216L-260.844 -187.769L-249.142 -173.296L-242.646 -166.639L-235.649 -160.494L-228.747 -155.363L-220.246 -150.054L-204.138 -142.263L-183.874 -135.116L-163.85 -129.615L-113.018 -117.302L-89.0292 -110.036L-78.3423 -105.895L-66.7121 -100.335L-57.5058 -94.811L-49.4577 -88.8333L-40.1082 -79.9682L-30.7944 -68.1799L-23.1285 -55.2581L-16.5611 -40.9403L-9.87432 -22.0527L-5.51598 -5.43212L-2.73379 11.5106L-1.88601 27.2363L-2.2681 36.531L-3.47412 46.4699L-5.51598 56.2895L-8.15486 65.2143L-11.7251 74.5686L-15.6894 82.9922L-20.9434 92.3585L-26.8421 101.331L-33.3139 109.898L-40.2992 118.059L-48.2637 126.292L-56.7296 134.011L-64.5269 140.323L-73.8407 146.993L-82.9394 152.696L-93.6503 158.495L-108.696 165.2L-122.189 170.021L-137.329 174.364L-156.912 178.695L-177.402 182.131L-199.421 185.018L-278.54 193.084L-313.371 197.415L-331.055 200.291L-346.506 203.381L-362.507 207.307L-375.558 211.172M-375.773 -262.162L-359.283 -257.354L-344.011 -251.185L-330.303 -243.43L-318.983 -234.66L-309.884 -225.544L-301.311 -214.985L-293.12 -203.233L-275.925 -176.84L-263.746 -160.923L-257.393 -154.123L-249.966 -147.393L-243.124 -142.191L-235.291 -137.168L-227.088 -132.765L-218.61 -128.911L-198.382 -121.681L-176.973 -115.775L-127.562 -103.724L-103.585 -96.386L-90.9518 -91.327L-82.5933 -87.2226L-73.984 -82.092L-66.4853 -76.5797L-58.091 -68.8003L-49.9235 -58.8375L-43.1532 -47.8725L-37.3739 -35.5711L-32.1319 -20.7164L-27.881 -4.08386L-25.4092 11.4748L-24.5734 27.1886L-25.8033 44.3103L-27.3317 52.7697L-29.684 61.7661L-32.7528 70.5477L-36.5141 79.0668L-41.2785 87.8841L-45.5055 94.53L-51.8937 103.156L-57.482 109.683L-64.4912 116.854L-71.4287 123.058L-78.7484 128.809L-87.0113 134.489L-103.895 143.903L-117.699 149.856L-131.932 154.748L-147.133 158.877L-164.65 162.623L-202.179 168.314L-281.239 176.977L-313.897 181.379L-346.256 187.584L-362.197 191.712L-375.881 195.995M-375.546 -249.097L-360.811 -243.549L-348.071 -237.011L-338.578 -230.592L-328.858 -222.132L-321.121 -213.697L-313.717 -204.032L-289.466 -166.006L-278.946 -151.521L-272.355 -143.981L-265.668 -137.49L-258.468 -131.596L-251.399 -126.728L-243.972 -122.385L-234.324 -117.66L-214.228 -110.071L-193.582 -104.106L-141.461 -91.1003L-117.532 -83.6073L-106.916 -79.3001L-97.2923 -74.5274L-88.7547 -69.2657L-81.9127 -64.0754L-74.1631 -56.6541L-67.4405 -48.2782L-61.8045 -39.1386L-56.3954 -27.4577L-51.7982 -13.8916L-48.3951 0.00863211L-46.3055 14.1713L-45.6965 27.7494L-46.7831 42.7353L-48.1563 50.4908L-50.2937 58.8071L-52.5983 65.5842L-56.2879 74.1271L-64.2166 87.7171L-74.0437 100.018L-79.5723 105.626L-86.5695 111.759L-100.003 121.28L-115.776 129.74L-127.681 134.703L-139.885 138.844L-153.008 142.471L-169.796 146.181L-203.732 151.67L-281.274 160.941L-315.294 165.94L-332.178 169.15L-348.238 172.872L-361.349 176.523L-375.63 181.248M-375.642 -235.829L-364.644 -230.615L-354.865 -224.638L-345.85 -217.586L-338.172 -210.081L-331.676 -202.433L-324.548 -192.578L-302.374 -156.628L-292.105 -141.964L-286.134 -134.817L-279.651 -128.148L-272.068 -121.585L-264.522 -116.145L-257.178 -111.682L-248.258 -107.1L-239.052 -103.115L-226.944 -98.7006L-204.961 -92.1861L-154.333 -79.1211L-131.849 -71.8309L-121.269 -67.4163L-112.97 -63.2044L-105.054 -58.3006L-98.2236 -53.0865L-91.501 -46.6555L-85.2082 -38.8642L-79.9543 -30.3332L-75.1899 -19.917L-71.3928 -9.11897L-68.2166 3.37332L-66.318 16.1042L-65.8165 27.5466L-66.927 41.8047L-69.9361 55.0606L-74.9034 67.708L-81.7573 79.4486L-90.7964 90.5449L-101.376 100.186L-113.758 108.693L-127.741 115.959L-138.344 120.302L-149.891 124.18L-161.617 127.437L-175.587 130.635L-207.338 136.159L-282.624 146.122L-315.867 151.515L-332.691 155.011L-346.602 158.471L-362.388 163.184L-375.881 167.992M-375.773 -222.108L-367.797 -217.3L-360.871 -212.217L-353.396 -205.535L-347.068 -198.722L-340.847 -190.86L-335.545 -183.2L-313.287 -146.462L-303.508 -132.336L-297.609 -125.141L-291.197 -118.388L-283.71 -111.73L-276.832 -106.575L-268.976 -101.588L-259.483 -96.553L-249.655 -92.198L-239.613 -88.4037L-217.726 -81.567L-167.253 -67.8935L-145.556 -60.5079L-129.353 -52.9195L-122.033 -48.4094L-114.642 -42.7539L-108.481 -36.7762L-103.083 -30.0945L-98.1997 -22.172L-93.5666 -12.4955L-90.3188 -3.77361L-87.5127 6.58293L-85.9724 15.7582L-85.3157 26.4727L-86.1515 38.6071L-88.5993 49.7869L-92.695 60.4656L-98.7967 70.9892L-106.498 80.4031L-116.624 89.4711L-127.323 96.6538L-140.076 103.18L-151.372 107.714L-162.261 111.282L-176.101 115.004L-191.492 118.381L-218.299 123.082L-290.588 133.832L-324.345 140.347L-350.65 147.315L-364.25 151.849L-375.606 156.216M-375.857 -207.516L-369.11 -202.194L-362.865 -196.3L-357.11 -189.917L-351.82 -183.14L-342.315 -168.834L-322.506 -135.629L-310.863 -119.318L-299.723 -107.208L-287.579 -97.1734L-279.197 -91.6849L-271.041 -87.1748L-260.008 -82.0443L-250.682 -78.3575L-230.276 -71.6042L-181.402 -57.537L-161.151 -50.3543L-152.004 -46.2617L-143.801 -41.8471L-137.795 -37.9455L-132.147 -33.5428L-126.965 -28.6151L-121.902 -22.5777L-116.732 -14.8461L-112.361 -6.63721L-108.887 2.00118L-106.702 9.56577L-105.281 17.3093L-104.672 25.8642L-105.388 36.5667L-107.645 46.3267L-111.776 56.2298L-116.684 64.1285L-123.168 71.7527L-131.777 79.3054L-141.318 85.6529L-153.437 91.8215L-162.739 95.5919L-174.286 99.4577L-199.958 105.984L-225.989 110.984L-288.869 121.555L-321.813 128.475L-350.065 136.505L-362.22 140.812L-375.487 146.217M-375.964 -191.42L-367.63 -182.543L-358.196 -169.944L-350.184 -157.225L-334.196 -130.081L-325.073 -116.371L-315.198 -104.094L-304.487 -93.5582L-296.642 -87.318L-287.698 -81.3761L-278.946 -76.4842L-267.268 -71.0195L-245.799 -62.9777L-203.373 -49.8412L-187.098 -44.3049L-169.951 -37.0506L-158.142 -30.3212L-151.24 -25.1907L-144.971 -19.3204L-138.882 -12.2808L-133.652 -4.58495L-130.022 2.39498L-127.239 9.75671L-125.401 17.4048L-124.612 25.9597L-125.317 35.2185L-127.466 43.5348L-131.013 51.3499L-135.359 57.9123L-141.592 64.8086L-148.745 70.7625L-157.772 76.5731L-167.36 81.4173L-184.746 88.0751L-206.812 94.2675L-230.61 99.4935L-291.09 111.234L-321.753 118.488L-349.121 126.96L-362.507 132.067L-375.642 137.806M-375.654 -172.449L-364.119 -156.067L-343.665 -121.573L-335.438 -108.986L-325.348 -95.9803L-313.288 -83.7506L-306.075 -77.8564L-298.457 -72.5111L-289.86 -67.3567L-279.006 -61.8443L-259.148 -53.6354L-217.81 -39.4608L-203.051 -33.9485L-188.698 -27.4577L-177.582 -20.9312L-170.632 -15.8842L-164.686 -10.7178L-158.811 -4.44186L-154.166 1.90569L-150.428 8.82595L-148.184 14.8633L-146.93 20.4473L-146.44 26.8664L-147.145 33.9895L-149.151 40.8501L-152.375 47.2335L-156.59 53.0083L-161.581 58.1269L-168.316 63.4723L-175.599 68.0301L-184.555 72.5521L-201.224 79.0548L-220.449 84.7939L-293.693 101.868L-322.745 109.707L-349.838 119.001L-363.725 124.788L-375.391 130.277M-375.88 -151.068L-352.369 -111.73L-343.342 -97.961L-332.739 -84.4426L-326.374 -77.6535L-320.082 -71.7952L-313.419 -66.3663L-305.227 -60.5915L-296.033 -55.0433L-287.149 -50.3901L-268.832 -42.2289L-222.228 -23.7232L-209.367 -17.4233L-198.298 -10.8133L-191.934 -6.18384L-186.525 -1.48282L-182.573 2.65739L-178.644 7.76409L-176.101 12.0833L-174.13 16.6888L-172.853 21.533L-172.387 26.5085L-172.936 32.1998L-174.357 36.9963L-176.925 42.1149L-180.746 47.2931L-185.307 51.8509L-190.943 56.2537L-196.985 60.0956L-205.236 64.4029L-217.105 69.4499L-235.398 75.714L-297.49 93.0862L-326.171 102.154L-350.232 111.437L-375.439 123.464M-375.833 -161.58L-368.334 -150.221L-349.408 -118.161L-340.441 -104.356L-328.488 -89.1674L-316.762 -77.6177L-308.917 -71.3656L-300.63 -65.734L-283.663 -56.4751L-264.558 -48.314L-212.854 -29.1043L-199.266 -22.6851L-187.576 -15.7171L-180.65 -10.6343L-175.277 -5.8975L-170.859 -1.20841L-166.56 4.51871L-163.408 10.1265L-161.091 16.14L-159.802 21.712L-159.444 27.4153L-160.076 33.1066L-161.688 38.5951L-164.566 44.3461L-168.817 50.0971L-173.904 55.1441L-180.137 59.9405L-187.468 64.4268L-195.146 68.2806L-209.093 73.9242L-226.132 79.4128L-295.532 97.1907L-324.404 105.638L-349.981 114.957L-363.773 120.958L-376 126.936M-375.976 -127.002L-361.146 -101.672L-350.948 -86.101L-339.855 -72.0457L-328.81 -60.8301L-316.571 -50.9269L-300.881 -40.8926L-285.024 -32.5882L-245.524 -13.9154L-235.494 -8.3792L-226.455 -2.55662L-217.571 4.65001L-211.409 11.618L-207.612 18.4906L-206.549 21.9149L-206.012 26.1625L-206.358 30.434L-207.564 34.5503L-209.499 38.3804L-212.448 42.4251L-216.46 46.5176L-220.914 50.121L-231.852 56.9219L-242.813 62.2314L-256.067 67.6722L-308.033 86.1541L-332.07 95.4964L-355.557 106.127L-375.797 116.878M-375.737 -137.335L-357.957 -107.089L-348.572 -92.6872L-337.085 -78.0473L-324.941 -65.901L-311.95 -55.795L-295.4 -45.8083L-276.689 -36.7881L-236.544 -19.5352L-224.389 -13.4024L-213.953 -7.13835L-203.218 1.20177L-198.681 5.77154L-195.552 9.68508L-192.901 13.9327L-190.895 18.5263L-189.844 22.6904L-189.51 26.9619L-189.952 31.2334L-191.421 36.006L-193.773 40.4326L-196.782 44.4296L-200.806 48.5102L-205.845 52.5311L-218.765 60.1911L-230.526 65.4768L-245.285 70.9891L-303.341 89.3636L-329.013 98.4077L-353.444 108.681L-375.809 120.004M-375.689 -101.409L-365.767 -84.8244L-357.384 -72.3321L-349.05 -61.5937L-339.867 -51.5474L-329.288 -41.8948L-319.079 -34.032L-308.977 -27.231L-278.552 -8.33154L-263.614 2.76477L-257.429 8.71859L-252.664 14.9707L-249.942 20.7933L-248.999 26.4249L-250.037 32.7606L-251.482 36.0298L-253.799 39.6451L-260.187 46.3864L-269.369 53.2231L-288.057 63.8302L-345.885 92.3107L-361.564 100.961L-375.701 109.432M-375.689 -112.028L-364.406 -92.914L-354.889 -78.6081L-345.145 -66.2351L-335.27 -55.8666L-323.867 -46.0709L-310.374 -36.6331L-298.051 -29.331L-264.02 -10.9445L-253.668 -4.53731L-245.524 1.30913L-238.049 7.99076L-233.094 14.0997L-229.941 20.495L-228.914 26.8306L-229.297 30.3862L-230.323 33.8105L-232.294 37.6286L-234.825 41.0887L-241.548 47.5079L-251.626 54.3327L-261.071 59.4394L-273.394 65.2143L-317.67 83.7439L-337.933 92.8118L-358.423 103.085L-375.881 112.964M-376 -77.4508L-362.674 -57.0837L-350.089 -41.4892L-337.467 -28.7941L-312.75 -7.01909L-301.896 4.38745L-297.645 10.1384L-294.529 15.7701L-292.833 20.483L-292.009 26.1385L-292.964 33.202L-295.842 39.7405L-300.463 46.1119L-306.983 52.7458L-315.246 59.6064L-325.67 67.1949L-375.606 100.746M-375.749 -87.7953L-366.71 -73.1792L-359.761 -63.1925L-351.76 -53.0865L-343.533 -44.1141L-335.748 -36.7165L-328.082 -30.2497L-295.52 -5.63497L-287.985 0.987023L-282.481 6.60674L-278.074 12.2503L-275.256 17.2258L-273.62 21.9507L-273.059 26.9261L-274.17 33.2379L-277.406 39.6093L-282.421 45.6705L-290.493 52.7459L-306.505 63.5797L-351.068 89.5426L-375.94 105.137M-375.952 -54.0053L-362.889 -35.1893L-343.235 -11.4814L-334.411 0.676823L-330.47 7.4897L-327.604 14.052L-325.765 20.9604L-325.276 26.6636L-325.909 33.0589L-327.736 39.2275L-331.246 46.2671L-336.154 53.3186L-342.244 60.3582L-350.375 68.4358L-375.845 90.4256M-375.666 -64.9465L-366.985 -51.7979L-356.967 -38.7329L-348.907 -29.6053L-329.455 -9.56041L-319.879 2.02508L-315.58 8.61126L-312.428 15.0304L-310.577 21.199L-310.028 26.8903L-310.84 33.2617L-313.335 39.9553L-317.467 46.6608L-323.461 53.772L-331.187 61.2292L-341.061 69.5216L-375.857 95.9379M-375.618 -31.1565L-362.638 -11.4098L-355.51 1.82222L-352.548 9.11237L-350.733 15.2929L-349.36 25.9239L-349.635 31.639L-350.626 37.2826L-352.799 44.0955L-355.486 49.9539L-363.152 62.0286L-375.594 76.8236M-375.916 -8.85648L-371.928 0.330786L-368.621 10.5441L-366.889 19.6837L-366.471 26.8187L-367.044 34.6696L-368.883 43.0575L-371.558 50.455L-375.69 58.7951" stroke="white" stroke-opacity="0.1"/>
</g>
</svg>
