<svg width="132" height="18" viewBox="0 0 132 18" fill="none" xmlns="http://www.w3.org/2000/svg">
    <path fill-rule="evenodd" clip-rule="evenodd"
          d="M48.4174 15.5889H51.7526V5.05844H48.4174V11.0851C48.4174 11.7841 48.2404 12.3383 47.8792 12.7456C47.5177 13.1527 47.0405 13.3565 46.4412 13.3565C45.2266 13.3565 44.6198 12.6122 44.6198 11.1276V5.05844H41.2843V11.4152C41.2843 14.3671 42.5383 15.8452 45.0532 15.8452C46.4369 15.8452 47.5394 15.2238 48.3664 13.9846H48.4174V15.5889ZM36.9263 15.5887H40.0916V9.2952C40.0916 6.30084 38.5448 4.80195 35.4555 4.80195C34.7906 4.80195 34.0534 4.88948 33.2473 5.06851C32.4382 5.2478 31.8023 5.45134 31.336 5.68652V8.13327C32.4998 7.38553 33.7285 7.01298 35.0186 7.01298C36.3048 7.01298 36.9481 7.58881 36.9481 8.7402L34.0032 9.11908C31.5132 9.43521 30.2666 10.6148 30.2666 12.6574C30.2666 13.6231 30.5662 14.3988 31.1699 14.9778C31.7735 15.5571 32.6008 15.845 33.656 15.845C35.0799 15.845 36.1566 15.2549 36.8829 14.0756H36.9263V15.5887ZM36.947 10.6007V11.3097C36.947 11.9559 36.7484 12.4891 36.3546 12.9104C35.957 13.3317 35.4477 13.5424 34.8186 13.5424C34.3673 13.5424 34.0096 13.4227 33.7421 13.188C33.4786 12.9526 33.3483 12.6478 33.3483 12.2787C33.3483 11.4608 33.8905 10.9841 34.9776 10.8465L36.947 10.6007ZM60.5444 15.5888H63.8907V0H60.5444V6.26187H60.5047C59.9521 5.28607 58.9802 4.802 57.5819 4.802C56.1073 4.802 54.9152 5.3251 54.0043 6.37445C53.0937 7.42434 52.6383 8.81751 52.6383 10.5584C52.6383 12.2258 53.0503 13.5246 53.8778 14.4513C54.7013 15.3813 55.793 15.845 57.1476 15.845C58.6222 15.845 59.7423 15.2763 60.5047 14.1389H60.5444V15.5888ZM60.6093 9.67421V10.4673C60.6093 11.3382 60.396 12.0366 59.9696 12.5663C59.543 13.0933 58.9905 13.3564 58.3107 13.3564C57.5995 13.3564 57.0429 13.107 56.6385 12.605C56.2377 12.1067 56.035 11.3943 56.035 10.4673C56.035 9.48068 56.2445 8.70526 56.6602 8.13682C57.0757 7.57154 57.6567 7.29074 58.3976 7.29074C59.0518 7.29074 59.5862 7.51538 59.9949 7.96808C60.403 8.42104 60.6093 8.98975 60.6093 9.67421ZM65.6548 2.90312C66.0157 3.22952 66.4779 3.39115 67.0418 3.39115C67.6128 3.39115 68.079 3.23295 68.4326 2.92052C68.7911 2.60439 68.9677 2.20073 68.9677 1.70611C68.9677 1.21782 68.7911 0.821803 68.4326 0.512532C68.079 0.203789 67.6128 0.0492859 67.0418 0.0492859C66.4779 0.0492859 66.0157 0.203789 65.6548 0.512532C65.2931 0.821803 65.1164 1.21782 65.1164 1.70611C65.1164 2.18017 65.2931 2.57671 65.6548 2.90312ZM68.9901 13.0336C68.7692 12.8058 68.6609 12.4651 68.6609 12.019V5.05844H65.3366V12.7385C65.3366 13.2197 65.4085 13.6513 65.5499 14.0373C65.6905 14.4199 65.8897 14.7465 66.1454 15.0165C66.4065 15.2905 66.717 15.4974 67.0783 15.6414C67.4433 15.7854 67.848 15.8555 68.2926 15.8555C68.7762 15.8555 69.2466 15.8241 69.6944 15.7574C70.1428 15.6944 70.5657 15.6098 70.9701 15.5082V13.2231L70.9424 13.2284L70.9422 13.2284C70.7674 13.2615 70.5922 13.2946 70.4175 13.3249C70.2367 13.36 70.0519 13.3776 69.8679 13.3776C69.5028 13.3776 69.2102 13.2616 68.9901 13.0336ZM71.9966 14.3706C73.0304 15.3535 74.4499 15.845 76.2567 15.845C78.0926 15.845 79.5376 15.3393 80.5926 14.325C81.6487 13.3104 82.1755 11.9278 82.1755 10.1795C82.1755 8.56144 81.6625 7.25897 80.6401 6.27579C79.6177 5.2934 78.2047 4.80194 76.4049 4.80194C74.5767 4.80194 73.1279 5.2934 72.0544 6.27579C70.9812 7.25897 70.4465 8.62445 70.4465 10.3654C70.4465 12.0502 70.963 13.3877 71.9966 14.3706ZM74.5007 8.08066C74.9376 7.55387 75.5517 7.29074 76.3433 7.29074C77.958 7.29074 78.7667 8.27339 78.7667 10.2429C78.7667 12.3171 77.965 13.3564 76.3647 13.3564C74.6847 13.3564 73.8426 12.3453 73.8426 10.3236C73.8426 9.35834 74.0638 8.61035 74.5007 8.08066ZM96.9369 15.5887H100.272V9.03866C100.272 6.21277 99.0947 4.80194 96.7385 4.80194C95.1347 4.80194 93.9236 5.45502 93.0966 6.76408C92.5321 5.45502 91.4844 4.80194 89.9525 4.80194C89.2116 4.80194 88.5281 4.97754 87.9034 5.33189C87.2777 5.68256 86.7941 6.14264 86.4475 6.70423H86.404V5.05822H83.0613V15.5887H86.404V9.73709C86.404 8.98223 86.5775 8.38584 86.9208 7.94685C87.2604 7.50812 87.7191 7.29061 88.2904 7.29061C89.4241 7.29061 89.9954 8.03465 89.9954 9.51983V15.5887H93.3382V9.6949C93.3382 9.01044 93.5113 8.43804 93.8582 7.97849C94.2054 7.51867 94.6529 7.29061 95.2025 7.29061C96.3596 7.29061 96.9369 8.056 96.9369 9.58258V15.5887ZM110.654 15.5887H107.488V14.0756H107.445C106.719 15.2549 105.642 15.845 104.219 15.845C103.164 15.845 102.336 15.5571 101.733 14.9778C101.129 14.3988 100.829 13.6231 100.829 12.6574C100.829 10.6148 102.076 9.4352 104.565 9.11907L107.51 8.7402C107.51 7.5888 106.867 7.01297 105.581 7.01297C104.291 7.01297 103.062 7.38552 101.899 8.13326V5.68651C102.365 5.45133 103 5.24779 103.81 5.0685C104.616 4.88948 105.354 4.80194 106.018 4.80194C109.108 4.80194 110.654 6.30084 110.654 9.29519V15.5887ZM107.51 11.3097V10.6007L105.541 10.8465C104.454 10.9841 103.911 11.4608 103.911 12.2787C103.911 12.6478 104.042 12.9526 104.306 13.188C104.573 13.4227 104.93 13.5424 105.382 13.5424C106.011 13.5424 106.521 13.3317 106.918 12.9104C107.311 12.4891 107.51 11.9559 107.51 11.3097ZM120.23 15.2096C119.476 15.6343 118.384 15.845 116.96 15.845C115.294 15.845 113.947 15.3567 112.917 14.3743C111.887 13.3948 111.37 12.1311 111.37 10.5795C111.37 8.78924 111.923 7.38157 113.025 6.34961C114.131 5.31766 115.609 4.80194 117.459 4.80194C118.734 4.80194 119.66 4.96699 120.23 5.2934V8.05205C119.533 7.54345 118.753 7.29061 117.893 7.29061C116.931 7.29061 116.173 7.56085 115.609 8.10821C115.048 8.65266 114.767 9.40356 114.767 10.3654C114.767 11.2956 115.038 12.0291 115.573 12.5593C116.107 13.0932 116.848 13.3563 117.784 13.3563C118.619 13.3563 119.432 13.1035 120.23 12.5946V15.2096ZM127.985 15.5888H132L127.837 10.004L131.721 5.05827H127.754L124.524 9.92355H124.48V0H121.138V15.5888H124.48V10.3654H124.524L127.985 15.5888Z"
          fill="white"/>
    <path fill-rule="evenodd" clip-rule="evenodd"
          d="M0.343757 8.78142C0.343757 8.78142 0.906338 8.68856 1.13815 8.93087C1.37019 9.17309 1.21814 9.67422 0.910245 9.68256C0.602349 9.69082 0.317783 9.74773 0.115737 9.53311C-0.0863092 9.31849 -0.0320625 8.88731 0.343757 8.78142ZM6.44716 12.2016C6.39298 12.2073 6.33566 12.1824 6.27698 12.1405C5.87383 11.5783 5.72821 9.65564 5.54315 9.54111C5.35127 9.42237 4.65634 10.6064 3.27412 10.4791C2.69615 10.4258 2.10795 10.051 1.76157 9.79152C1.79378 9.35463 1.79938 8.3345 2.66026 8.66625C3.18323 8.86769 4.07878 9.42101 4.86528 8.4274C5.7349 7.32851 6.21447 7.64775 6.50216 7.88659C6.78972 8.12544 6.5981 9.36769 7.02705 9.02044C7.45599 8.67318 9.18799 6.5169 9.18799 6.5169C9.18799 6.5169 10.5289 5.16352 10.7342 6.58626C10.9396 8.00901 11.8139 9.58573 12.0456 9.54084C12.2775 9.49582 14.9748 4.00941 15.3612 3.65549C15.7475 3.30144 17.048 3.34795 16.9862 4.25601C16.9243 5.16406 16.792 10.8081 16.792 10.8081C16.792 10.8081 16.6394 12.3986 16.8879 11.5486C16.9909 11.1962 17.1016 10.8783 17.24 10.5074C17.9057 8.37449 19.0397 4.73085 19.6047 2.85339C19.7346 2.40413 19.8465 2.01852 19.9333 1.72213L19.9335 1.72132C19.9672 1.58394 20.0008 1.47513 20.0345 1.37801C20.0817 1.21887 20.1136 1.11359 20.1234 1.08584C20.1487 1.01566 20.2195 0.962067 20.319 0.922757C20.4189 0.859781 20.526 0.856517 20.6475 0.853388C20.9611 0.825233 21.3644 0.866174 21.727 0.969548C21.8327 0.973764 21.9476 1.00763 22.0562 1.08571V1.08584C22.0562 1.08584 22.0627 1.08979 22.0719 1.09577C22.0744 1.09768 22.0769 1.09904 22.0795 1.10108C22.1022 1.11685 22.139 1.148 22.1816 1.19928C22.1828 1.20091 22.1842 1.20295 22.1857 1.20445C22.2033 1.22608 22.2211 1.25165 22.2391 1.28076C22.4416 1.57809 22.5661 2.12624 22.4413 3.09836C22.1303 5.5241 21.8896 10.5143 21.8896 10.5143C21.8896 10.5143 21.8417 10.753 22.3413 9.70202C22.3588 9.66543 22.381 9.63388 22.4015 9.60028C22.4285 9.58246 22.4588 9.55689 22.4963 9.51173C22.8049 9.1434 23.6347 8.92713 24.21 8.93148C24.4526 8.96086 24.6556 9.02193 24.777 9.09865C25.0041 9.44454 24.87 10.7211 24.87 10.7211C24.3914 10.7654 23.4789 11.0232 23.1555 11.0708C22.8319 11.1186 22.3406 13.2208 21.6576 13.0058C20.9745 12.7908 19.4524 11.8353 19.4524 11.7039C19.4524 11.5895 19.5721 10.193 19.6032 9.8326C19.6055 9.80771 19.6073 9.78458 19.6092 9.7616C19.6099 9.75493 19.6106 9.74718 19.6106 9.74718L19.6104 9.74759C19.6325 9.46372 19.6129 9.33967 19.4819 9.623C19.3691 9.86674 18.8788 11.426 18.3321 13.1244C18.2743 13.2728 17.2411 16.4023 17.1054 16.7838C16.9436 17.2264 16.8075 17.5652 16.7136 17.7404C16.5706 17.9344 16.3779 18.0558 16.1089 17.9743C15.4379 17.7714 14.588 16.8434 14.5801 16.6131C14.564 15.3144 14.6432 8.33151 14.3286 8.91339C14.0057 9.5101 11.4951 13.6508 11.4951 13.6508C11.4531 13.658 11.4219 13.6566 11.385 13.66C11.2071 13.6406 10.9317 13.5827 10.8556 13.4124C10.8513 13.4024 10.8459 13.3933 10.8422 13.3828C10.8385 13.3722 10.8344 13.3604 10.8281 13.341C10.794 13.2271 10.7801 13.1033 10.7501 13.0019C10.6378 12.6226 10.458 12.0789 10.2694 11.5259C9.9805 10.5829 9.68257 9.61824 9.63358 9.51173C9.53777 9.30335 9.39816 9.39122 9.27287 9.5116C8.71251 9.98725 7.52218 12.0868 6.44716 12.2016Z"
          fill="url(#paint0_linear_2573_7819)"/>
    <defs>
        <linearGradient id="paint0_linear_2573_7819" x1="-11.27" y1="9.03735" x2="5.76823" y2="31.6766"
                        gradientUnits="userSpaceOnUse">
            <stop stop-color="#FFBE00"/>
            <stop offset="1" stop-color="#E85E0A"/>
        </linearGradient>
    </defs>
</svg>
